<?xml version="1.0" encoding="utf-8"?>
<!-- Generator: Adobe Illustrator 19.1.0, SVG Export Plug-In . SVG Version: 6.00 Build 0)  -->
<!DOCTYPE svg PUBLIC "-//W3C//DTD SVG 1.1//EN" "http://www.w3.org/Graphics/SVG/1.1/DTD/svg11.dtd">
<svg version="1.1" id="Layer_1" xmlns="http://www.w3.org/2000/svg" xmlns:xlink="http://www.w3.org/1999/xlink" x="0px" y="0px"
	 width="233.22359px" height="138.5278px" viewBox="0 0 233.22359 138.5278" enable-background="new 0 0 233.22359 138.5278"
	 xml:space="preserve">
<path fill="#454545" d="M37.2559,14.9604c-0.45321-0.8115-1.106-1.4419-1.83841-1.7754l-5.4654-2.4819
	c-0.0073-0.0034-0.0117-0.0102-0.019-0.0137c-0.1172-0.0532-0.2402-0.082-0.3599-0.1274c-0.0009-0.0005-0.0014-0.0005-0.0014-0.0005
	C28.3091,10.0805,26.9487,10,26,10c-0.9492,0-2.3101,0.0805-3.5723,0.5615c-0.0024,0.0005-0.0049,0.0015-0.0068,0.0024
	c-0.1182,0.045-0.2393,0.0728-0.355,0.1255c-0.0083,0.0035-0.0127,0.0108-0.0205,0.0152l-5.4614,2.48
	c-0.7349,0.3325-1.3882,0.9633-1.8404,1.7763c-0.8076,1.4531-2.955,13.0274-4.7358,22.9483
	c-0.0244,0.1352,0.0083,0.2739,0.0894,0.3842c0.081,0.1109,0.2041,0.1831,0.3403,0.2002l4.0537,0.5118
	c0.021,0.0024,0.042,0.0039,0.063,0.0039c0.2319,0,0.438-0.1617,0.4883-0.3941c0.3672-1.6933,1.6968-7.2139,2.6357-11.0879
	c0.022,3.3072,0.086,7.8164,0.2661,10.4746c0.0005,0.0049,0.0034,0.0088,0.0039,0.0137c0.0035,0.0347,0.0176,0.0679,0.0284,0.1016
	c0.0092,0.0293,0.0146,0.06,0.0293,0.0864c0.0024,0.0049,0.0019,0.0102,0.0048,0.0151c0.1285,0.2222,1.4453,2.1709,7.9893,2.1709
	c6.5405,0,7.8608-1.9482,7.9897-2.1704c0.0025-0.0044,0.0025-0.0093,0.0049-0.0137c0.0156-0.0288,0.022-0.0615,0.0318-0.0937
	c0.0092-0.0303,0.0219-0.0596,0.0249-0.0908c0.0009-0.0069,0.0048-0.0122,0.0053-0.0191c0.1792-2.6587,0.2427-7.167,0.2642-10.4741
	c0.9394,3.874,2.2705,9.3941,2.6387,11.0879c0.0507,0.2319,0.2563,0.3936,0.4882,0.3936c0.021,0,0.042-0.0015,0.063-0.0039
	l4.0518-0.5118c0.1362-0.0171,0.2593-0.0893,0.3403-0.2002c0.0811-0.1103,0.1138-0.249,0.0894-0.3842
	C39.3486,23.1802,37.8882,16.103,37.2559,14.9604z M29.0308,11.4287c0.0297,0.0874,0.0708,0.1748,0.0708,0.2627
	c0,0.7729-1.274,1.6338-3.1026,1.6338c-1.8271,0-3.1006-0.8609-3.1006-1.6338c0-0.0879,0.0406-0.1753,0.0699-0.2627
	C24.0293,11.0664,25.1797,11,26,11C26.8198,11,27.9697,11.0664,29.0308,11.4287z M37.8374,37.956
	c-0.7656-3.3906-3.4927-14.562-3.5215-14.6801c-0.0605-0.2461-0.2944-0.418-0.5464-0.3775
	c-0.2514,0.0308-0.4404,0.2446-0.4394,0.4981c0.0005,0.0986,0.0327,9.8051-0.2617,14.3838
	C32.7568,38.1084,31.206,39.3896,26,39.3896c-5.25,0-6.7793-1.2998-7.0674-1.6059c-0.2954-4.5777-0.2651-14.2886-0.2646-14.3872
	c0.0009-0.2535-0.188-0.4678-0.4395-0.4981c-0.2554-0.0395-0.4868,0.1314-0.5464,0.3775
	c-0.0288,0.1181-2.7539,11.2885-3.518,14.6801l-3.0791-0.3886c1.0214-5.688,3.728-20.6729,4.5327-22.1202
	c0.4702-0.8457,1.0654-1.2099,1.3789-1.352l4.9272-2.2378c0.1319,1.395,1.8648,2.4678,4.0752,2.4678
	c2.2114,0,3.9453-1.0728,4.0772-2.4678l4.9277,2.2378c0.312,0.1421,0.9067,0.5068,1.3779,1.3511
	c0.5459,0.9863,2.0708,8.4277,4.5327,22.1211L37.8374,37.956z"/>
<path fill="#454545" d="M220.95749,36.9829c0-0.0039,0.002-0.0068,0.002-0.0098c0-0.0117-0.00589-0.0224-0.0078-0.0342
	c-0.4317-3.83-1.252-10.8964-1.58791-12.2822l-1.86919-7.4541c-0.3515-1.3984-0.67581-2.2451-1.1855-2.8691
	c-0.0352-0.0723-0.0899-0.1319-0.15631-0.1807c-0.40619-0.4277-0.9238-0.7529-1.6543-1.0889
	c-0.0761-0.0332-2.50389-1.1201-3.68649-1.6503c-0.1123-0.4561-0.2861-0.8907-0.5605-1.2764
	c-0.0098-0.0147-0.02541-0.0215-0.03621-0.0342c-0.65819-0.8965-2.1933-0.9082-2.87009-0.9082
	c-0.67191,0-2.19341,0.0098-2.85941,0.8857c-0.0195,0.0196-0.0439,0.0332-0.0605,0.0567c-0.2735,0.3838-0.4473,0.8174-0.5596,1.2715
	l-2.04979,0.9179c-0.85551,0.3829-1.59862,0.7159-1.6582,0.7422c-0.72751,0.335-1.24411,0.6592-1.64841,1.0869
	c-0.0625,0.0479-0.1153,0.1045-0.1494,0.1739c-0.5118,0.623-0.83699,1.4697-1.18851,2.873l-1.86719,7.458
	c-0.457,1.875-1.8047,14.2139-1.8623,14.7383c-0.01559,0.1406,0.0303,0.2822,0.125,0.3877c0.0947,0.1055,0.2305,0.166,0.3721,0.166
	h3.05949c0.24121,0,0.4483-0.1728,0.4922-0.4101l2.4258-13.3487c0.06841,1.1104,0.1221,2.2412,0.1221,3.0694
	c0,3.1396-0.27249,5.5849-0.7881,7.0713c-0.08989,0.2607,0.05081,0.5459,0.3105,0.6367c0.03911,0.0136,0.9541,0.3476,1.334,1.4892
	c0.62311,1.8653,2.668,2.7344,6.43851,2.7344c0.00389,0,0.00679,0,0.0098,0c0.0009,0,0.0009,0,0.00191,0
	c0.00099,0,0.00099,0,0.002,0c3.7636-0.0029,5.80559-0.8711,6.42279-2.7334c0.3828-1.1426,1.29691-1.4766,1.332-1.4883
	c0.127-0.042,0.2325-0.1338,0.29111-0.2539c0.05859-0.1201,0.0683-0.2588,0.02339-0.3847
	c-0.51559-1.4844-0.78709-3.9297-0.78709-7.0713c0-0.8262,0.0527-1.9541,0.12109-3.0655l2.4258,13.3448
	c0.04491,0.2373,0.25191,0.4101,0.4922,0.4101h3.0605c0.14061,0,0.2773-0.0605,0.37111-0.166
	c0.09569-0.1055,0.14059-0.2471,0.125-0.3877C221.2114,39.2622,221.10789,38.3247,220.95749,36.9829z M218.3931,24.897
	c0.3046,1.2529,1.05659,7.6757,1.5,11.5761h-2.2579l-2.58391-14.207c0.0742-1.2129,0.4785-4.3838,0.9687-6.4482
	c0.16991,0.415,0.33011,0.9306,0.50391,1.6279L218.3931,24.897z M207.3452,34.3139l-1.16211-1.6679l1.06351-15.9649l0.0976-0.2802
	l0.09671,0.2793l1.06349,15.9658L207.3452,34.3139z M205.55319,16.4761c-0.3506-0.876-0.7236-2.1094-0.81149-3.2872
	c0.418,0.835,1.0322,1.6143,1.76369,1.9737L205.55319,16.4761z M208.17529,15.1675c0.7334-0.3575,1.3515-1.1387,1.77049-1.9776
	c-0.0947,1.2334-0.5127,2.4981-0.82619,3.2813L208.17529,15.1675z M207.3452,10.1948c1.43259,0,1.91989,0.2549,2.09079,0.5195
	c0,0.001,0,0.002,0.00101,0.003c0.0264,0.0371,0.0381,0.083,0.0625,0.1211c0.0313,0.0976,0.0322,0.1914,0.0322,0.2685
	c0,1.0274-1.0976,3.2676-2.18649,3.2676c-1.09081,0-2.18941-2.2402-2.18941-3.2676
	C205.15579,10.6333,205.42139,10.1948,207.3452,10.1948z M196.2749,24.8999l1.86719-7.4551
	c0.1748-0.6982,0.334-1.2148,0.50391-1.6299c0.4892,2.0625,0.89259,5.2363,0.9678,6.4512l-2.58211,14.207h-2.25679
	C195.2173,32.5727,195.9702,26.1499,196.2749,24.8999z M194.4966,38.9526c0.039-0.3525,0.09669-0.8691,0.16499-1.4795h2.18851
	l-0.2686,1.4795H194.4966z M201.84419,38.144c-0.35249-1.0595-1.0527-1.6299-1.5146-1.9033c0.4707-1.6123,0.709-3.9561,0.709-6.9775
	c0-2.1768-0.34669-6.2354-0.418-7.0411c-0.00099-0.0136-0.0078-0.0244-0.0107-0.038c-0.08791-1.3848-0.60161-5.4375-1.22861-7.4932
	c0.30081-0.2705,0.67291-0.4746,1.1788-0.707c0.02141-0.0088,0.7832-0.3506,1.664-0.7452l1.4922-0.6679
	c-0.0527,2.3974,1.2119,4.9775,1.2852,5.125c0.07809,0.1562,0.23241,0.2607,0.4062,0.2744
	c0.01369,0.001,0.02739,0.0019,0.041,0.0019c0.15919,0,0.31059-0.0761,0.40529-0.207l0.3506-0.4834l-1.0313,15.4727
	c-0.0078,0.1133,0.0235,0.2256,0.0889,0.3193l1.58301,2.2725v4.8398C202.96529,40.0991,202.12549,38.9887,201.84419,38.144z
	 M212.82079,38.145c-0.2793,0.8428-1.1133,1.9502-4.97559,2.041v-4.8408l1.58009-2.2725c0.0654-0.0927,0.09669-0.205,0.0889-0.3183
	l-1.03029-15.4561l0.33879,0.4668c0.0948,0.1309,0.24609,0.207,0.4053,0.207c0.0137,0,0.02739-0.0009,0.041-0.0019
	c0.1739-0.0137,0.3282-0.1182,0.4063-0.2744c0.0732-0.1475,1.33591-2.7237,1.2851-5.1201
	c1.27251,0.5703,3.10651,1.3916,3.1299,1.4013c0.5137,0.2364,0.8907,0.4414,1.19531,0.7159
	c-0.63081,2.0664-1.14641,6.1367-1.23041,7.5058c-0.00391,0.0137-0.0098,0.0244-0.0117,0.0381
	c-0.06839,0.792-0.41409,4.8506-0.41409,7.0264c0,3.0234,0.2383,5.3672,0.709,6.9775
	C213.87549,36.5141,213.17628,37.0845,212.82079,38.145z M218.0864,38.9526l-0.2695-1.4795h2.18939
	c0.06841,0.6104,0.125,1.127,0.16411,1.4795H218.0864z"/>
<path fill="#454545" d="M174.8569,56.5752c0.00299-0.0196,0.01169-0.0362,0.01169-0.0567c0-0.039-0.0136-0.0732-0.0224-0.1093
	c-0.11819-1.8633-0.1953-3.0293-0.1992-3.0811c-0.01759-0.2627-0.2354-0.4668-0.49908-0.4668H149.853
	c-0.2637,0-0.4814,0.2041-0.49901,0.4668c-0.0029,0.0518-0.08009,1.21-0.1982,3.0596c-0.0118,0.0429-0.0264,0.0849-0.0264,0.1308
	c0,0.0244,0.0107,0.045,0.0137,0.0674c-0.43361,6.794-1.3848,22.2998-1.4053,27.7725c-0.00099,0.1328,0.0517,0.2607,0.14551,0.3545
	c0.09369,0.0947,0.22169,0.1474,0.35449,0.1474h11.9131c0.248,0,0.459-0.18159,0.4951-0.4267
	c0.2773-1.8887,0.75-5.7725,1.35449-11.1289c0.6055,5.3564,1.0791,9.2412,1.35641,11.1289
	c0.03619,0.2451,0.24709,0.4267,0.49509,0.4267l11.91121,0.001c0.1328,0,0.2607-0.0527,0.35449-0.1475
	c0.0937-0.0937,0.1465-0.2216,0.14551-0.3544C176.24269,78.8838,175.28949,63.3633,174.8569,56.5752z M174.2173,62.375
	c-2.96391-0.1123-5.3692-2.4287-5.61821-5.3565h5.28421C173.978,58.4971,174.09329,60.3379,174.2173,62.375z M173.68019,53.8613
	c0.0293,0.4424,0.07811,1.1904,0.1396,2.1572h-23.6387c0.0616-0.9668,0.1104-1.7148,0.13971-2.1572H173.68019z M164.39209,65.8984
	c0,1.1475-0.8125,2.1084-1.89259,2.3389V57.0185h1.89259V65.8984z M150.11769,57.0185h5.24611
	c-0.24811,2.9151-2.6338,5.2237-5.5791,5.3545C149.9077,60.3369,150.0229,58.4971,150.11769,57.0185z M159.7173,83.8603h-10.9756
	c0.05179-4.2773,0.55269-13.3457,0.98239-20.4834c3.5244-0.1035,6.3867-2.8711,6.63971-6.3584h5.1357v11.751
	c-0.00591,0.0508-0.01759,0.1484-0.03711,0.3311C160.687,76.1406,160.07269,81.3379,159.7173,83.8603z M164.2856,83.8603
	c-0.3535-2.5049-0.96381-7.6533-1.7343-14.624c1.6084-0.26559,2.84079-1.6562,2.84079-3.3379v-8.8799h2.207
	c0.25391,3.5,3.1358,6.2764,6.6787,6.3604c0.42871,7.1377,0.9297,16.2051,0.98151,20.4824L164.2856,83.8603z"/>
<path fill="#454545" d="M85.3765,22.269c-0.9161-4.5752-1.1954-5.9731-1.3174-6.437l0.0263-0.0054
	c-0.457-2.2734-2.4336-3.2744-4.5947-4.1796c-0.2549-0.1065-4.66499-1.9161-4.66499-1.9161l0,0
	c-0.3047-0.1259-1.4571-0.5361-3.4932-0.5361c-2.0381,0-3.1904,0.4106-3.4941,0.5366c-0.001,0.0005-0.002,0.0015-0.003,0.002
	c-0.06249,0.0254-4.4052,1.8076-4.6621,1.914c-2.1591,0.9053-4.1347,1.9063-4.5918,4.1792l0.0508,0.0103
	c-0.167,0.5557-0.4697,2.0688-1.3418,6.4321c-0.0488,0.2451,0.0908,0.4888,0.3262,0.5703l4.6172,1.6016v14.376
	c0,0.1406,0.0596,0.2749,0.1631,0.3696c0.0898,0.082,2.2793,2.0083,8.9355,2.0083c6.6572,0,8.8477-1.9263,8.9375-2.0083
	c0.1035-0.0947,0.1631-0.229,0.1631-0.3696v-14.376l4.6172-1.6016C85.2866,22.7578,85.42529,22.5141,85.3765,22.269z
	 M74.30319,10.8208c0,0.7329-1.2197,1.5498-2.9707,1.5498c-1.75,0-2.9687-0.8169-2.9687-1.5498
	c0-0.0762,0.039-0.1558,0.06441-0.2339c0.585-0.2002,1.58299-0.3921,2.9043-0.3921c1.3399,0,2.3496,0.1973,2.9307,0.4004
	C74.2876,10.6719,74.30319,10.7471,74.30319,10.8208z M80.4331,23.3823v-1.7646c0-0.2764-0.2236-0.5-0.5-0.5
	c-0.27641,0-0.5,0.2236-0.5,0.5v16.9477c-0.5967,0.3965-2.8711,1.6294-8.1006,1.6294c-5.2344,0-7.5078-1.2358-8.0986-1.6289V21.6177
	c0-0.2764-0.2237-0.5-0.5-0.5c-0.2764,0-0.5,0.2236-0.5,0.5v1.7646l-3.877-1.3447c0.2803-1.4019,1.1553-5.7822,1.2012-5.9976
	c0.002-0.0054,0.0029-0.0107,0.0039-0.0161c0.3604-1.7954,2.0244-2.6265,3.9961-3.4536c0.1865-0.0772,2.5439-1.0454,3.832-1.5737
	c0.13869,1.3427,1.8106,2.374,3.9424,2.374c2.1328,0,3.8047-1.0313,3.9443-2.374c1.2872,0.5283,3.6446,1.4961,3.8282,1.5727
	c1.9746,0.8277,3.6386,1.6587,4,3.4546c0.001,0.0029,0.001,0.0059,0.00191,0.0093c0.03419,0.165,0.92089,4.5932,1.20319,6.0044
	L80.4331,23.3823z"/>
<path fill="#454545" d="M84.71919,106.3501v-3.8697c0-0.2763-0.22359-0.5-0.5-0.5H58.4477c-0.2763,0-0.5,0.2237-0.5,0.5v3.8697
	l-2.6059,14.2221c-0.0244,0.1333,0.0063,0.271,0.085,0.3814c0.07911,0.11031,0.1992,0.1836,0.3334,0.20361l12.8926,1.9126
	c0.2442,0.0347,0.4805-0.1123,0.5518-0.3506l2.1279-7.0703l2.1279,7.0703c0.06451,0.2139,0.2608,0.356,0.4786,0.356
	c0.0244,0,0.0488-0.00201,0.0732-0.0054l12.89449-1.9126c0.1338-0.02,0.25491-0.0933,0.333-0.20361
	c0.0791-0.1104,0.1104-0.2481,0.08601-0.3814L84.71919,106.3501z M83.71919,105.8979h-1.1474v-2.9175h1.1474V105.8979z
	 M80.42429,105.8979v-2.9175h1.1475v2.9175H80.42429z M78.2759,105.8979v-2.9175h1.14839v2.9175H78.2759z M76.1284,105.8979v-2.9175
	h1.14751v2.9175H76.1284z M73.98,105.8979v-2.9175h1.1484v2.9175H73.98z M71.8325,105.8979v-2.9175H72.98v2.9175H71.8325z
	 M67.5366,105.8979v-2.9175h1.1504v2.9175H67.5366z M65.3911,105.8979v-2.9175h1.1455v2.9175H65.3911z M63.2436,105.8979v-2.9175
	h1.1475v2.9175H63.2436z M61.0952,105.8979v-2.9175h1.1484v2.9175H61.0952z M58.9477,105.8979v-2.9175h1.1475v2.9175H58.9477z
	 M69.687,102.9804h1.1455v2.9175H69.687V102.9804z M68.3716,122.0171l-11.9531-1.77299l2.4462-13.3462h11.9678v6.9434
	L68.3716,122.0171z M74.2935,122.0171l-2.461-8.1758v-6.9434h11.9697l2.4463,13.3462L74.2935,122.0171z"/>
<path fill="#454545" d="M35.0332,66.5263c-0.6865-1.33-1.0342-2.7734-1.0342-4.289v-6.585c0-0.1953-0.1133-0.372-0.29-0.4541
	l-1.1016-0.5078c-3.5156-1.6211-5.3779-1.8291-6.6084-1.8291c-1.2295,0-3.0908,0.208-6.6094,1.8291l-1.0986,0.5078
	c-0.1767,0.0821-0.29,0.2588-0.29,0.4541v6.585c0,1.5117-0.3477,2.9551-1.0342,4.29c-0.0371,0.0703-0.0557,0.1494-0.0557,0.2285
	v12.919c0,0.1601,0.0772,0.3115,0.2071,0.4053l6.4775,4.6865c0.0879,0.0635,0.1904,0.0947,0.293,0.0947
	c0.1396,0,0.2773-0.0586,0.3759-0.1709l1.7344-1.9785l1.7363,1.9795c0.0987,0.1113,0.2364,0.1699,0.376,0.1699
	c0.1026,0,0.2051-0.0312,0.293-0.0947l6.4775-4.6865c0.1299-0.0938,0.2071-0.2452,0.2071-0.4053v-12.919
	C35.0889,66.6758,35.0693,66.5976,35.0332,66.5263z M26.8555,61.7793c-0.2764,0.6767-0.5655,1.3945-0.8565,2.1318
	c-0.292-0.7402-0.582-1.4609-0.8594-2.1406c-1.3134-3.2168-2.3457-5.7783-1.9726-7.4609c1.2861-0.3721,2.168-0.4483,2.832-0.4483
	c0.6651,0,1.5469,0.0772,2.834,0.4483C29.2051,55.9941,28.1709,58.5586,26.8555,61.7793z M23.8125,83.6894l-5.9014-4.2705v-5.0195
	l2.9102,2.1094c0.2236,0.1631,0.5361,0.1123,0.6972-0.1114c0.1641-0.2236,0.1133-0.5361-0.1093-0.6972l-3.4981-2.5362v-6.289
	c0.7237-1.4463,1.0899-3.0059,1.0899-4.6377v-6.2656l0.8076-0.3731c0.8682-0.3994,1.6221-0.706,2.2891-0.9443
	c-0.1504,1.9277,0.8662,4.4326,2.1162,7.4941c0.4121,1.0088,0.8515,2.0889,1.2851,3.2305v16.3867L23.8125,83.6894z M28.1875,83.6894
	l-1.6885-1.9248V65.3789c0.4326-1.1387,0.8711-2.2149,1.2822-3.2217c1.252-3.0654,2.2706-5.5732,2.1211-7.5029
	c0.6661,0.2383,1.42,0.5449,2.2862,0.9443l0.8105,0.374v6.2647c0,1.6357,0.3662,3.1953,1.0899,4.6387v6.288l-3.4981,2.5362
	c-0.2226,0.16109-0.2734,0.47359-0.1094,0.6972c0.1612,0.2237,0.4737,0.2745,0.6973,0.1114l2.9102-2.1094v5.0195L28.1875,83.6894z"
	/>
<path fill="#454545" d="M174.0298,24.6577l-1.8672-7.4551c-0.35251-1.4072-0.6787-2.2558-1.1963-2.8808
	c-0.0322-0.0655-0.08299-0.1192-0.14259-0.1651c-0.40721-0.4297-0.92671-0.7558-1.6611-1.0937
	c-0.1006-0.044-2.70311-1.21-3.8174-1.709c-0.07811-0.2764-0.15721-0.5449-0.23531-0.7979
	c-0.00299-0.0097-0.0098-0.0156-0.0137-0.0244c-0.4238-1.3301-2.32329-1.3369-3.0957-1.3369c-0.7715,0-2.66989,0.0068-3.0938,1.3369
	c-0.00391,0.0088-0.0107,0.0147-0.0136,0.0244c-0.0782,0.253-0.1573,0.5215-0.2354,0.7979
	c-1.11821,0.501-3.74321,1.6758-3.83101,1.7148c-0.7276,0.334-1.24319,0.6582-1.6485,1.085
	c-0.06349,0.0488-0.1172,0.1074-0.1523,0.1777c-0.5098,0.6231-0.834,1.4697-1.18559,2.8701l-1.86911,7.459
	c-0.457,1.875-1.8047,14.2139-1.86229,14.7383c-0.01561,0.1406,0.03029,0.2822,0.125,0.3877
	c0.0947,0.1055,0.22949,0.166,0.37209,0.166h3.05951c0.2412,0,0.4483-0.1728,0.4912-0.4101l2.4278-13.3448
	c0.0683,1.1094,0.12111,2.2383,0.12111,3.0655c0,3.1396-0.27251,5.5849-0.78711,7.0713c-0.0909,0.2607,0.0507,0.5459,0.30951,0.6367
	c0.03909,0.0136,0.9541,0.3476,1.336,1.4883c0.6201,1.8662,2.66499,2.7353,6.43649,2.7353c3.7695,0,5.81641-0.8691,6.43851-2.7344
	c0.37979-1.1416,1.29491-1.4756,1.3291-1.4873c0.12689-0.042,0.23239-0.1338,0.291-0.2539
	c0.05949-0.1201,0.0683-0.2588,0.02339-0.3847c-0.51459-1.4844-0.78709-3.9297-0.78709-7.0713c0-0.8272,0.0527-1.9571,0.1221-3.0694
	l2.4258,13.3487c0.0439,0.2373,0.2509,0.4101,0.4921,0.4101h3.0596c0.14261,0,0.2774-0.0605,0.3721-0.166
	c0.0947-0.1055,0.14061-0.2471,0.125-0.3877C175.83449,38.8745,174.48679,26.5356,174.0298,24.6577z M173.0591,24.897
	c0.3047,1.2529,1.05859,7.6757,1.5,11.5761h-2.2569l-2.582-14.2051c0.07419-1.2128,0.47749-4.3906,0.9668-6.455
	c0.1709,0.416,0.33009,0.9326,0.5049,1.6318L173.0591,24.897z M159.271,12.9145c0.2598,0.5869,0.6201,1.166,1.0537,1.6162
	c-0.5703,0.1329-1.12889,0.3184-1.5742,0.4854C158.8833,14.4546,159.06689,13.6977,159.271,12.9145z M165.2515,15.0161
	c-0.4454-0.167-1.0049-0.3516-1.5743-0.4854c0.4346-0.4502,0.79399-1.0293,1.05379-1.6162
	C164.93509,13.6977,165.11859,14.4546,165.2515,15.0161z M162.00049,10.1948c1.63281,0,2.04691,0.3301,2.1523,0.6309
	c0.00201,0.0088,0,0.0166,0.00201,0.0254c0.00389,0.0146,0.00879,0.0302,0.01369,0.0439
	c0.01561,0.0771,0.02051,0.1504,0.02051,0.2129c0,1.0264-1.09871,3.2656-2.18851,3.2656c-1.0889,0-2.18649-2.2392-2.18649-3.2656
	c0-0.0625,0.00479-0.1358,0.02049-0.2129c0.00481-0.0137,0.0097-0.0293,0.01361-0.0439c0.002-0.0088,0-0.0166,0.002-0.0254
	C159.9556,10.5249,160.3696,10.1948,162.00049,10.1948z M150.94189,24.9009l1.86909-7.4561
	c0.1739-0.6973,0.33301-1.2129,0.50301-1.6279c0.4902,2.0674,0.89549,5.2402,0.9687,6.4511l-2.58301,14.2051h-2.2578
	C149.8833,32.5727,150.63719,26.1499,150.94189,24.9009z M149.16449,38.9526c0.03911-0.3525,0.0957-0.8691,0.16411-1.4795h2.18849
	l-0.2686,1.4795H149.16449z M156.51219,38.143c-0.3535-1.0595-1.0537-1.6289-1.51559-1.9023
	c0.4707-1.6123,0.709-3.9561,0.709-6.9775c0-2.1758-0.3457-6.2344-0.41611-7.0411c-0.0009-0.0136-0.0078-0.0253-0.00969-0.038
	c-0.08791-1.3819-0.6026-5.4297-1.23241-7.4912c0.3027-0.2725,0.6767-0.4766,1.1855-0.71
	c0.0322-0.0137,1.81641-0.8135,3.08589-1.3818c-0.41989,1.6084-0.7578,3.1142-0.76169,3.1357
	c-0.04201,0.1855,0.02539,0.3779,0.17189,0.498c0.09181,0.0733,0.20311,0.1114,0.3154,0.1114c0.07031,0,0.1416-0.0147,0.20801-0.045
	c0.5899-0.2695,2.1739-0.8876,3.24809-0.9453V40.186C157.62939,40.0971,156.79349,38.9887,156.51219,38.143z M167.49069,38.144
	c-0.2822,0.8438-1.12109,1.9531-4.9902,2.042V15.3559c1.07031,0.0586,2.6582,0.6758,3.248,0.9453
	c0.06641,0.0303,0.13771,0.045,0.20801,0.045c0.11229,0,0.22369-0.0381,0.31549-0.1114c0.1465-0.1201,0.21381-0.3125,0.1718-0.497
	c-0.00389-0.0215-0.3418-1.5283-0.7607-3.1367c2.9326,1.3134,3.07521,1.3759,3.07521,1.3759l0,0
	c0.5127,0.2364,0.88869,0.4414,1.19339,0.7139c-0.629,2.0645-1.1436,6.1338-1.22859,7.5059
	c-0.00191,0.0136-0.0097,0.0253-0.0117,0.04c-0.0683,0.791-0.416,4.8496-0.416,7.0264c0,3.0234,0.2383,5.3662,0.709,6.9775
	C168.54149,36.5141,167.8423,37.0845,167.49069,38.144z M172.7524,38.9526l-0.26849-1.4795h2.18849
	c0.0683,0.6104,0.125,1.127,0.164,1.4795H172.7524z"/>
<path fill="#454545" d="M122.57079,61.3652c-0.0195-1.6035-0.1973-3.9678-0.3652-5.6015l-0.2588-2.4551
	c-0.0264-0.2539-0.2412-0.4473-0.4971-0.4473h-9.5684c-0.2558,0-0.4697,0.1934-0.497,0.4473l-0.2588,2.457
	c-0.168,1.6367-0.3457,4.0029-0.3633,5.6045c0,0.1123-0.07909,22.9893-0.07909,22.9893c0,0.1328,0.0527,0.2607,0.1465,0.3544
	c0.0937,0.0948,0.2207,0.1475,0.3535,0.1475h3.1904c0.2617,0,0.4795-0.20119,0.4991-0.4619l0.8388-11.1133
	c0.1348-1.7998,0.43651-4.1973,0.6533-5.7002c0.0069-0.0498,0.1133-0.9492,0.3008-2.5556
	c0.1582,1.3496,0.2949,2.50871,0.3008,2.5527c0.2344,1.6191,0.5273,4.0098,0.6563,5.7041l0.8388,11.1123
	c0.0196,0.2607,0.2363,0.4619,0.4981,0.4619h3.19041c0.13279,0,0.26069-0.0527,0.35449-0.1475
	c0.0937-0.0937,0.14651-0.2216,0.14551-0.3544C122.6499,84.3594,122.57079,61.4824,122.57079,61.3652z M120.9995,53.8613
	l0.0693,0.6524h-8.8056l0.06831-0.6524H120.9995z M117.86469,59.5947c0,0.3965-0.167,0.5645-0.7002,0.6172v-4.6982h0.7002V59.5947z
	 M115.3745,67.4404c-0.2187,1.5215-0.5234,3.9463-0.6602,5.7705l-0.8046,10.6504h-2.2246
	c0.0117-3.3584,0.0771-22.4404,0.0771-22.4844c0.0176-1.5654,0.19241-3.8955,0.35741-5.5078l0.03809-0.3554h4.00681v5.1914
	c-0.0107,0.0927-0.0625,0.5332-0.1367,1.1748C115.80519,63.7851,115.394,67.2988,115.3745,67.4404z M119.42329,83.8613
	l-0.8037-10.6504c-0.1396-1.834-0.44431-4.2549-0.6631-5.7695c-0.0136-0.1065-0.247-2.0928-0.457-3.8848
	c-0.1445-1.2344-0.22659-1.9385-0.2744-2.3457c0.709-0.0693,1.6396-0.3633,1.6396-1.6162v-4.081h2.3096l0.0371,0.3535
	c0.1651,1.6103,0.3408,3.9384,0.3594,5.5039c0,0.0488,0.0664,19.1318,0.07711,22.4902H119.42329z"/>
<path fill="#454545" d="M41.9878,120.5449c0.0073-0.0469,0.0078-0.0928,0.0024-0.1406c-0.0005-0.0039,0.0015-0.0078,0.0005-0.0127
	l-0.0078-0.042c-0.0049-0.0234-0.0049-0.04881-0.0132-0.0713l-2.583-14.12109v-3.87691c0-0.2764-0.2236-0.5-0.5-0.5H25.999H13.1113
	c-0.2763,0-0.5,0.2236-0.5,0.5v3.87691l-2.604,14.2344c-0.0029,0.0166,0.0025,0.0312,0.001,0.0478
	c-0.0029,0.0332-0.0024,0.0664,0.0015,0.1006c0.0044,0.0342,0.0112,0.0664,0.0219,0.0987c0.0054,0.0146,0.0035,0.0302,0.0103,0.0459
	c0.1709,0.3857,1.166,1.374,6.6914,2.1953c1.9614,0.291,3.3823,0.3955,4.4121,0.3955c1.8716,0,2.4502-0.34669,2.6279-0.5528
	c0.0493-0.0576,0.0826-0.1259,0.1045-0.1972l1.2237-4.0791c0.288,0.0732,0.5844,0.124,0.895,0.124c0.001,0,0.0019,0,0.0029,0
	c0,0,0.0005,0,0.001,0c0,0,0.0005,0,0.001,0c0.31,0,0.6064-0.0508,0.894-0.124l1.229,4.0937c0.0005,0.001,0.002,0.002,0.002,0.0029
	c0.02,0.0635,0.0517,0.125,0.0981,0.1797c0.1777,0.2061,0.7559,0.5528,2.6279,0.5528c1.0298,0,2.4512-0.1045,4.4126-0.3955
	c5.5249-0.8213,6.5201-1.8096,6.6909-2.1953c0.0069-0.0157,0.0059-0.0323,0.0108-0.0479
	C41.977,120.6064,41.9839,120.5771,41.9878,120.5449z M13.6113,102.7803H25.999h12.3877v2.92091H25.999H13.6113V102.7803z
	 M26.0015,117.5703c-0.0005,0-0.0015,0-0.0015,0h-0.001h-0.0005c-0.0005,0-0.0014,0-0.0014,0c-1.4644,0-2.646-1.1973-2.75-2.78519
	l-0.5279-8.0839h3.2798h3.2793l-0.5293,8.0839C28.645,116.373,27.4643,117.5703,26.0015,117.5703z M22.9717,122.0654
	c-0.3345,0.1348-1.6939,0.4775-6.0913-0.1748c-4.3667-0.6494-5.5699-1.33981-5.8477-1.54781l2.4951-13.64159h8.189l0.5322,8.1494
	c0.0923,1.4131,0.8457,2.581,1.9238,3.2129L22.9717,122.0654z M35.1182,121.8906c-4.3824,0.6504-5.751,0.3115-6.0918,0.1758
	l-1.2022-4.0039c1.0776-0.6309,1.8306-1.7988,1.9229-3.2119l0.5337-8.1494h8.1894l2.4907,13.6162
	C40.6123,120.5732,39.3291,121.2646,35.1182,121.8906z"/>
<path fill="#454545" d="M164.08739,100.4145l1.14651-3.2187c0.05469-0.1533,0.03119-0.3233-0.06252-0.4561
	c-0.0938-0.1328-0.24609-0.2119-0.40819-0.2119h-5.5235c-0.16211,0-0.31441,0.0791-0.4082,0.2119
	c-0.0937,0.1328-0.1172,0.3028-0.0625,0.4561l1.14459,3.2187l-2.35649,23.90141c-0.0146,0.1553,0.043,0.30859,0.15819,0.415
	l3.94531,3.66309c0.09569,0.0889,0.21779,0.1338,0.33989,0.1338s0.24411-0.04491,0.3398-0.1338l3.94531-3.66309
	c0.1153-0.10641,0.1729-0.2597,0.15819-0.415L164.08739,100.4145z M164.0542,97.5278l-0.82811,2.32619h-2.45119l-0.82721-2.32619
	H164.0542z M162.00049,127.3452l-3.4238-3.1777l2.2988-23.31351h2.25l2.29881,23.31351L162.00049,127.3452z"/>
<path fill="#454545" d="M222.8335,112.6084h-1.35159l1.37209-0.3223c0.12891-0.0303,0.24121-0.11031,0.3105-0.2226
	c0.0704-0.1133,0.0918-0.2491,0.0616-0.378l-1.2989-5.5263c-0.0625-0.2676-0.3261-0.44051-0.60049-0.3721l-3.959,0.9287
	l-0.0352-0.1494c-0.0303-0.1289-0.11029-0.2412-0.22359-0.3106c-0.1123-0.0703-0.24901-0.0898-0.377-0.0615l-2.05472,0.48441
	c-0.26849,0.0625-0.43549,0.33199-0.37199,0.60059l0.0341,0.1474l-3.3847,0.79501l-0.332-1.4141
	c-0.0303-0.1289-0.1104-0.2412-0.22269-0.3105c-0.1123-0.0704-0.24712-0.0938-0.37791-0.0616l-9.9502,2.3399
	c-0.2686,0.0625-0.43559,0.332-0.37309,0.6006l0.33109,1.4121l-8.31059,1.9531c-0.26849,0.0625-0.4355,0.33199-0.37199,0.60059
	l1.29779,5.5234c0.00101,0.00491,0.00391,0.0088,0.00591,0.0127c0.04489,0.2295,0.2373,0.4053,0.48039,0.4053h29.70221
	c0.2764,0,0.5-0.2236,0.5-0.5v-5.6748C223.3335,112.832,223.10989,112.6084,222.8335,112.6084z M222.1382,111.4277l-1.11821,0.2627
	c0.04201-0.2266,0.041-0.4609-0.0137-0.6914l-0.75969-3.2402c-0.05569-0.2334-0.15921-0.4424-0.29491-0.6231l1.1171-0.2617
	L222.1382,111.4277z M218.45749,107.4863c0.0029,0,0.0049,0.001,0.0078,0c0.35651-0.081,0.72171,0.1406,0.80861,0.502l0.7598,3.2402
	c0.041,0.1748,0.0117,0.3555-0.082,0.5078c-0.09479,0.15331-0.24319,0.2598-0.41899,0.3018
	c-0.00291,0.0009-0.00391,0.0019-0.00681,0.0029l-0.85941,0.2021l-1.0703-4.5546L218.45749,107.4863z M216.47409,107.2822
	l1.33301,5.6729c0,0.0009,0,0.0019,0,0.0029s0.00099,0.0019,0.00099,0.0029l0.03419,0.1445l-1.084,0.2549l-0.0322-0.1357
	c0-0.0049,0.0009-0.0088,0-0.0137c-0.00099-0.0049-0.0049-0.0078-0.00589-0.0127l-1.29201-5.5058c0-0.003,0.00101-0.0049,0-0.0078
	c-0.00101-0.003-0.0029-0.0049-0.0029-0.0069l-0.0332-0.14059L216.47409,107.2822z M214.5679,108.3994l1.06729,4.5527l-3.3828,0.793
	l-1.06931-4.5508L214.5679,108.3994z M200.78659,109.6338l8.9776-2.1104l1.9619,8.3526l-8.97949,2.1064l-0.2178-0.9248
	l7.5654-1.7754c0.12891-0.0303,0.2412-0.11031,0.31059-0.2226c0.07031-0.1133,0.09181-0.2491,0.06151-0.378l-0.64751-2.751
	c-0.00089-0.00481,0.00101-0.00871,0-0.0136c-0.00089-0.0049-0.00479-0.0078-0.0058-0.0127l-0.6465-2.75
	c-0.0625-0.26759-0.32809-0.4405-0.60059-0.37209l-7.56252,1.7774L200.78659,109.6338z M201.55609,117.2861l0.23441,0.9971h-4.48041
	L201.55609,117.2861z M208.30809,109.8701l0.4209,1.79l-4.69429,1.1026c-0.2686,0.0625-0.43561,0.332-0.3721,0.60059
	c0.0537,0.2304,0.25879,0.3857,0.4863,0.3857c0.03709,0,0.0762-0.0039,0.1143-0.0137l4.69429-1.1025l0.4209,1.791l-15.875,3.7266
	l-1.0683-4.5508L208.30809,109.8701z M222.3335,118.2832h-16.4942l6.6026-1.54881c0.12889-0.0303,0.2412-0.1104,0.3105-0.22269
	c0.0703-0.1133,0.0918-0.249,0.0616-0.37791l-0.33209-1.41409l3.38188-0.79301l0.03511,0.14851
	c0.0537,0.2304,0.2588,0.3857,0.4863,0.3857c0.0372,0,0.0762-0.0039,0.1143-0.0137l2.05859-0.4824
	c0.12891-0.0293,0.2412-0.1103,0.3105-0.2226c0.02541-0.041,0.0372-0.08791,0.0499-0.1338h3.41501V118.2832z"/>
<path fill="#454545" d="M125.4351,112.3594c-0.003-0.0113-0.0079-0.0225-0.0118-0.0337c-0.6201-1.5088-0.9345-2.9912-0.9345-4.4068
	l-0.00589-10.8916c0-0.27589-0.22361-0.4995-0.5-0.4995l-7.57521,0.00249c-0.13279,0-0.25979,0.0527-0.3535,0.1464
	c-0.0938,0.09431-0.1465,0.22121-0.1465,0.354l0.0029,3.0718c0,0.001-0.00089,0.0015-0.00089,0.0025
	c0,0.0009,0.00089,0.0014,0.00089,0.0024l0.0069,9.3037c0,1.75249-0.2178,3.1958-1.2823,4.544l-6.0312,7.6562
	c-0.0234,0.0278-0.0508,0.0518-0.0684,0.0855c0,0.0009,0,0.0019-0.0009,0.0029l-0.1114,0.1416
	c-1.3183,1.686-1.1152,4.1421,0.461,5.5918c0.76561,0.706,1.7607,1.0947,2.8017,1.0947c1.1524,0,2.26369-0.4868,3.04591-1.3349
	l7.27929-7.88091c0.6319-0.6802,1.3291-1.1812,1.7451-1.4805c0.1407-0.10059,0.2491-0.1797,0.3135-0.23289
	c1.1026-0.9009,1.71-2.1543,1.71-3.5307C125.77879,113.478,125.6626,112.9033,125.4351,112.3594z M123.4829,97.5278l0.001,2.0772
	h-6.5742l-0.00201-2.07471L123.4829,97.5278z M109.562,126.6972c-1.1572-1.0634-1.32909-2.8349-0.4375-4.1054
	c1.8135,1.00291,3.44141,2.37991,4.7559,4.0249C112.728,127.7329,110.7476,127.7905,109.562,126.6972z M114.57369,125.8911
	c-1.34959-1.6621-3.001-3.0601-4.83879-4.09859l5.68549-7.2183c1.3154-1.667,1.4971-3.4663,1.4971-5.1636l-0.0069-8.8056h6.57431
	l0.00389,7.3144c0,0.9321,0.1386,1.8892,0.3828,2.85789c-1.4248,1.4136-2.2676,3.3643-2.3106,5.4097
	c-0.0136,0.6631,0.0703,1.3149,0.2158,1.9502c-0.166,0.1538-0.33389,0.3174-0.499,0.4951L114.57369,125.8911z M123.4351,116.8262
	c-0.0557,0.0459-0.1465,0.1103-0.2627,0.1933c-0.1446,0.104-0.3272,0.2388-0.52249,0.3877
	c-0.05961-0.395-0.09671-0.7944-0.08891-1.2002c0.0332-1.6001,0.625-3.1343,1.6407-4.3232
	c0.0898,0.26221,0.1748,0.5239,0.2822,0.7871c0.00489,0.0156,0.0107,0.0312,0.01659,0.0459
	c0.1846,0.43021,0.2783,0.8852,0.2793,1.35201C124.77979,115.1382,124.30319,116.1167,123.4351,116.8262z"/>
<path fill="#454545" d="M222.9321,81.6015c0.2959-0.4414,0.3194-0.9404,0.2735-1.3017c-0.0479-0.3633-0.35161-1.8135-0.73441-3.6494
	c-0.4424-2.1162-0.99319-4.751-1.2617-6.2627c-0.47459-2.6787-1.7578-7.7881-2.3252-9.0049
	c-0.5401-1.1592-2.59669-3.5107-2.68359-3.6104c-0.00201-0.0029-0.00591-0.0029-0.0078-0.0058
	c-0.04691-0.0518-0.10361-0.0957-0.17191-0.125c-0.00101,0-0.00101,0-0.002,0c-0.39551-0.169-3.332-1.6778-4.61031-2.3399
	l-0.7373-1.5107c-0.0029-0.0059-0.0098-0.0078-0.0127-0.0127c-0.04489-0.0801-0.10739-0.1436-0.18559-0.1885
	c-0.0088-0.0058-0.01271-0.0185-0.0224-0.0234c-0.05571-0.0293-1.38771-0.7051-3.12401-0.7051
	c-1.7393,0-3.0547,0.6777-3.10941,0.7061c-0.0078,0.0039-0.01079,0.0146-0.01859,0.0195
	c-0.08011,0.0459-0.1445,0.1103-0.18851,0.1934c-0.0029,0.0048-0.0087,0.0058-0.0107,0.0107l-0.7393,1.5107
	c-1.27829,0.6612-4.2148,2.1709-4.61029,2.3399c-0.00101,0-0.00101,0-0.002,0c-0.06831,0.0293-0.125,0.0732-0.17181,0.125
	c-0.002,0.0029-0.00589,0.0029-0.0078,0.0058c-0.08701,0.0997-2.14259,2.4512-2.68269,3.6094
	c-0.5634,1.208-1.84761,6.3184-2.32611,9.0049c-0.26959,1.51759-0.8223,4.16209-1.2657,6.28709
	c-0.3808,1.8233-0.68159,3.2637-0.73039,3.6289c-0.0459,0.3604-0.0235,0.85741,0.27339,1.29881
	c-0.10249,0.6241-0.17279,1.07619-0.1924,1.2129c-0.06929,0.5371,0.0352,1.4746,1.5108,1.7139
	c0.1386,0.0215,0.27051,0.0322,0.39551,0.0322c1.1015,0,1.66699-0.8105,1.7832-1.4189l-0.01561-0.0029
	c0.0576-0.21101,0.1201-0.5362,0.2128-1.0225c0.54401-0.40141,0.8233-0.98341,0.9014-1.3867l2.59961-10.4727
	c0.66119,11.0596,0.73929,11.23441,0.7822,11.3291c0.0538,0.1211,0.252,0.252,0.543,0.3867v1.1328
	c0,0.1885,0.10651,0.3614,0.27541,0.4463c0.1055,0.0537,2.64549,1.3096,6.79399,1.3096h0.0175
	c4.1465,0,6.6866-1.2559,6.79201-1.3096c0.16899-0.0849,0.27539-0.2578,0.27539-0.4463v-1.1318
	c0.291-0.1338,0.48831-0.2646,0.54201-0.3848c0.04399-0.0976,0.1221-0.2714,0.78319-11.3349l2.59671,10.4492
	c0.08009,0.417,0.3613,1.0049,0.90529,1.40919l0.1963,1.0303c0.1171,0.6074,0.6835,1.4179,1.7841,1.4179
	c0.125,0,0.2569-0.0107,0.39459-0.0332c1.4785-0.2373,1.58101-1.1758,1.5097-1.7168
	C223.10599,82.6797,223.0347,82.2265,222.9321,81.6015z M209.76219,54.3525c0.25,1.8789-0.3828,2.9238-1.2588,4.335
	c-0.375,0.6035-0.78419,1.2705-1.168,2.0703c-0.3837-0.7998-0.79289-1.4668-1.16789-2.0703
	c-0.87801-1.4102-1.5117-2.4571-1.2598-4.335c0.4043-0.1689,1.31639-0.4912,2.41899-0.4912
	C208.42819,53.8613,209.35109,54.1836,209.76219,54.3525z M195.35599,80.5146c-0.02539,0.1289-0.27449,1.2481-1.74319,1.0196
	c-1.1738-0.1895-1.21289-0.67001-1.1572-1.1036c0.04289-0.3252,0.35539-1.8203,0.7168-3.5527
	c0.4453-2.1308,0.99899-4.7832,1.27139-6.3154c0.49911-2.7998,1.7588-7.711,2.24811-8.7578
	c0.3008-0.6446,1.2588-1.8614,1.95801-2.7012c0.44429,1.623,0.9258,4.8262,0.10638,7.7119c-0.0009,0.0029,0,0.0059-0.0009,0.0098
	c0,0.0019-0.002,0.0039-0.00299,0.0068L195.35599,80.5146z M199.7417,67c0.97069-3.5332,0.1758-7.2246-0.27541-8.6406
	c1.1982-0.5889,4.25-2.167,4.40041-2.2452c0.0244-0.0127,0.03419-0.041,0.05569-0.0576c0.1972,1.2119,0.7636,2.1426,1.39551,3.1592
	c0.50089,0.8057,1.06639,1.7188,1.52629,2.9209v20.1797c-0.1006-0.0039-0.19629-0.0039-0.2988-0.0108
	c-0.02249-0.0009-0.0439-0.0019-0.06641-0.00391c-0.8369-0.05759-1.73729-0.1904-2.59079-0.3564
	c-0.00391,0-0.0088-0.001-0.01271-0.002c-0.23929-0.0468-0.47169-0.0976-0.7012-0.1484c-0.0976-0.0215-0.1953-0.0439-0.28909-0.0654
	c-0.0947-0.0225-0.1835-0.0449-0.2753-0.0674c-0.45999-0.1133-0.8721-0.2266-1.2081-0.3281c-0.1416-0.043-0.2812-0.086-0.4023-0.127
	c-0.1494-0.0498-0.2744-0.0957-0.3643-0.1318C200.50539,79.6924,200.04349,72.1318,199.7417,67z M214.05219,81.0674
	c-0.07028,0.0293-0.16989,0.0654-0.2822,0.1045c-0.00099,0.0009-0.0029,0-0.00389,0c-0.01071,0.0029-0.02051,0.0078-0.0303,0.0117
	c-0.0752,0.0263-0.1572,0.0527-0.24701,0.082c-0.04788,0.01469-0.09479,0.0303-0.14749,0.0459
	c-0.08791,0.0273-0.1797,0.0547-0.27831,0.084c-0.1279,0.0371-0.2637,0.0752-0.4082,0.1142
	c-0.07329,0.0196-0.1514,0.0391-0.2285,0.0596c-0.1973,0.0518-0.40039,0.1026-0.61919,0.1543
	c-0.0117,0.0029-0.02341,0.0049-0.03419,0.0078c-1.06252,0.2481-2.34081,0.4834-3.54291,0.5684
	c-0.0108,0.001-0.0215,0.001-0.0323,0.0019c-0.1201,0.0079-0.23531,0.0079-0.3535,0.0127V62.0957
	c0.4561-1.1807,1.0137-2.085,1.5078-2.8809c0.63191-1.0156,1.1973-1.9472,1.39461-3.1572
	c0.0215,0.0156,0.03119,0.0439,0.05559,0.0566c0.15041,0.0782,3.20221,1.6563,4.40041,2.2452
	c-0.4502,1.415-1.2451,5.1074-0.2744,8.6406C214.62059,72.2275,214.14699,79.9746,214.05219,81.0674z M215.9175,66.832
	c-0.00101-0.0029-0.00301-0.0049-0.00301-0.0068c-0.0009-0.00391,0-0.0069-0.0009-0.0098
	c-0.8194-2.8867-0.33789-6.0889,0.1064-7.7119c0.6992,0.8398,1.6572,2.0566,1.95801,2.7012
	c0.4922,1.0556,1.752,5.9658,2.2471,8.7578c0.2715,1.5263,0.8232,4.1689,1.2666,6.2929c0.34959,1.6709,0.6787,3.2491,0.72169,3.5723
	c0.0556,0.4365,0.0166,0.91701-1.1573,1.10651c-1.3974,0.2207-1.69719-0.8116-1.746-1.04501L215.9175,66.832z"/>
<path fill="#454545" d="M126.88719,19.6479c0-0.227-0.15229-0.4258-0.37299-0.4834c-1.2422-0.3276-1.8223-3.6372-1.8223-5.7705
	V9.9795c0-0.2578-0.1953-0.4732-0.45121-0.4976l-3.0024-0.2856c-0.0127-0.001-0.0225,0.0058-0.0352,0.0058
	c-0.0205-0.0005-0.04-0.0078-0.0605-0.0053c-0.0362,0.0039-0.0664,0.0205-0.0996,0.0312c-0.0254,0.0078-0.0518,0.0117-0.0752,0.0239
	c-0.0625,0.0323-0.1182,0.0747-0.1621,0.1285c-0.0039,0.0048-0.0098,0.0063-0.0137,0.0112
	c-0.708,0.9336-2.32719,1.5371-4.126,1.5371c-1.7978,0-3.418-0.6035-4.1269-1.5371c-0.001-0.002-0.0039-0.0025-0.0049-0.0039
	c-0.0459-0.0586-0.1055-0.1031-0.1719-0.1367c-0.0215-0.0108-0.0449-0.0147-0.0674-0.022
	c-0.0322-0.0108-0.0615-0.0274-0.0967-0.0318c-0.0234-0.0024-0.0439,0.0049-0.0664,0.0054c-0.0136,0-0.02541-0.0073-0.039-0.0063
	l-3,0.2856c-0.2559,0.0244-0.4522,0.2398-0.4522,0.4976v3.4145c0,2.1338-0.5791,5.4429-1.8213,5.7705
	c-0.2197,0.0576-0.373,0.2564-0.373,0.4834v18.9214c0,0.0039,0.0019,0.0073,0.0019,0.0112c0.001,0.0376,0.0137,0.0738,0.0225,0.1104
	c0.0068,0.0269,0.0088,0.0552,0.0195,0.0801c0.0098,0.0224,0.0283,0.04,0.041,0.061c0.0225,0.0347,0.042,0.0698,0.0723,0.0982
	c0.002,0.0024,0.0029,0.0058,0.00591,0.0083c0.10059,0.0922,2.5547,2.2553,10.05659,2.2553c7.5005,0,9.9575-2.1631,10.0591-2.2549
	c0.0019-0.0029,0.0039-0.0068,0.0059-0.0092c0.0273-0.0259,0.04491-0.0586,0.0664-0.0899c0.0156-0.0229,0.0351-0.0434,0.0468-0.0683
	c0.0118-0.0264,0.0118-0.0562,0.0196-0.0845c0.0078-0.0347,0.0195-0.0679,0.0214-0.103c0-0.0054,0.002-0.0093,0.002-0.0147V19.6479z
	 M116.66599,11.9287c1.58891,0,3.0332-0.416,4.04491-1.1187c-0.1396,2.6231-1.8906,4.711-4.04491,4.711
	c-2.1543,0-3.9053-2.0879-4.0449-4.711C113.6328,11.5127,115.07809,11.9287,116.66599,11.9287z M107.4463,38.3188V19.9887
	c2.168-1.1108,2.1943-6.3598,2.1943-6.5947v-2.9599l1.9678-0.187c-0.00291,0.0791-0.0137,0.1557-0.0137,0.2358
	c0,3.3296,2.2754,6.0381,5.0713,6.0381c2.79591,0,5.0708-2.7085,5.0708-6.0381c0-0.0801-0.0098-0.1567-0.0117-0.2358l1.9668,0.187
	v2.9599c0,0.2349,0.02729,5.4834,2.19529,6.5947v18.3301c-0.627,0.4292-3.1914,1.875-9.2212,1.875
	C110.6357,40.1938,108.0742,38.7485,107.4463,38.3188z"/>
<path fill="#454545" d="M82.8662,62.7695c-0.8755-5.4209-1.8135-6.79-5.2827-7.7158l-3.2647-0.8486l-0.12889-0.2354
	c-0.01411-0.0254-0.03561-0.0478-0.05121-0.0732c-0.0025-0.003-0.0035-0.0059-0.0059-0.0078
	c-0.4165-0.6436-1.4463-1.0274-2.7983-1.0274c-1.3511,0-2.3809,0.3838-2.7993,1.0264c-0.003,0.0039-0.0049,0.0078-0.0079,0.0117
	c-0.0151,0.0234-0.0356,0.0449-0.0493,0.0693l-0.1294,0.2364l-3.268,0.8496c-3.4668,0.9248-4.4043,2.2949-5.2779,7.7158
	l-2.9092,18.0723c-0.0214,0.13181,0.0118,0.2675,0.0914,0.3759c0.08,0.10841,0.1997,0.1797,0.333,0.1983l3.57129,0.5009
	c0.2714,0.0333,0.5224-0.1494,0.5634-0.4199c0.0127-0.081,0.8604-5.6533,1.7583-10.6494
	c-0.0356,1.18169-0.0732,2.4287-0.1098,3.6348c0,0.0039-0.002,0.0068-0.002,0.0107c0,0.003,0.0015,0.0049,0.0015,0.0078
	c-0.1045,3.4629-0.1983,6.5743-0.2031,6.7383c-0.0293,0.8223,0.1738,1.2793,0.7241,1.62991
	c1.27,0.80759,3.4472,1.9912,5.3003,1.9912c0.4057,0,0.7968-0.05659,1.1591-0.1875c0.522-0.1875,0.9327-0.5254,1.2535-0.9766
	c0.3198,0.4512,0.7299,0.7881,1.2514,0.9766c0.36179,0.12991,0.75249,0.1875,1.1587,0.1875c1.8521,0,4.0313-1.1836,5.3023-1.9912
	c0.5517-0.3506,0.75439-0.8076,0.7231-1.6279c-0.0054-0.1651-0.0991-3.27541-0.20309-6.7383c0-0.0039,0.00189-0.0068,0.00189-0.0098
	c0-0.00491-0.0024-0.0078-0.0024-0.0127c-0.03661-1.206-0.0737-2.4541-0.10941-3.6347c0.898,4.99609,1.74471,10.5703,1.7573,10.6513
	c0.0411,0.2705,0.293,0.4571,0.5635,0.4199l3.5713-0.5009c0.1333-0.0186,0.2529-0.0899,0.333-0.1983
	c0.0796-0.1084,0.1128-0.2431,0.0913-0.3759L82.8662,62.7695z M74.09419,55.8789l1.6651,3.043l-0.8408,0.4502
	c-0.1519,0.081-0.251,0.2353-0.2627,0.4072c-0.0113,0.1728,0.0669,0.3379,0.207,0.4394l0.97221,0.6992l-4.0005,10.2188
	C72.71829,69.1172,73.6899,60.0107,74.09419,55.8789z M70.8345,82.5156c-0.2183,0.6289-0.5738,1.0303-1.0923,1.2178
	c-1.7154,0.6152-4.7085-1.1504-5.584-1.7071c-0.1636-0.1044-0.2817-0.1796-0.2612-0.7529c0.0014-0.0537,0.06-1.9907,0.1362-4.5132
	h1.5332c0.2764,0,0.5-0.2236,0.5-0.5c0-0.2763-0.2236-0.5-0.5-0.5h-1.5029c0.143-4.7451,0.3266-10.8305,0.3266-10.8305
	c0.0074-0.25591-0.1797-0.4766-0.4336-0.5098c-0.2544-0.0449-0.4926,0.1299-0.5527,0.3779
	c-1.0122,4.2061-2.5137,13.7891-2.8647,16.0616l-2.5772-0.3614L60.79,62.9287c0.8155-5.0606,1.4956-6.0938,4.5454-6.9063
	l2.354-0.6113l-1.8989,3.4727c-0.0639,0.1172-0.0786,0.2549-0.041,0.3828c0.0381,0.1279,0.1255,0.2353,0.2432,0.2978l0.57809,0.3106
	l-0.6343,0.457c-0.1841,0.1318-0.25539,0.3721-0.17429,0.584l5.0723,13.2353V82.5156z M66.8335,60.9179l0.9712-0.7001
	c0.1396-0.1006,0.2178-0.2666,0.2065-0.4385c-0.0117-0.1719-0.11079-0.3262-0.2627-0.4072l-0.8388-0.4502l1.66399-3.043
	c0.4053,4.1338,1.37991,13.2451,2.2608,15.2578L66.8335,60.9179z M69.4341,54.3721c0.209-0.2247,0.8178-0.5108,1.9004-0.5108
	c1.083,0,1.69041,0.2852,1.89841,0.5098c-0.417,4.497-1.1953,11.6308-1.8979,14.9033
	C70.63329,66.0039,69.85349,58.8691,69.4341,54.3721z M82.1279,80.8594c-0.3506-2.2725-1.8506-11.8555-2.8628-16.0616
	c-0.0595-0.248-0.2964-0.4228-0.5527-0.3779c-0.2539,0.0332-0.4409,0.2539-0.4336,0.5098c0,0,0.18311,6.0849,0.3257,10.8305h-1.5034
	c-0.2764,0-0.5,0.2237-0.5,0.5c0,0.2764,0.2236,0.5,0.5,0.5h1.5337c0.0756,2.524,0.1342,4.4624,0.1357,4.5171
	c0.0215,0.5703-0.09669,0.6446-0.2598,0.749c-0.8759,0.5567-3.8652,2.3311-5.5859,1.7061
	c-0.5176-0.1865-0.8726-0.5879-1.0903-1.2168v-8.3643l4.35641-11.3671h2.3858c0.2763,0,0.5-0.2237,0.5-0.5
	c0-0.2764-0.2237-0.5-0.5-0.5h-2.0025l0.3325-0.8682c0.0816-0.2119,0.0098-0.4522-0.17479-0.585l-0.6347-0.456l0.57909-0.3106
	c0.1172-0.0625,0.205-0.1699,0.24261-0.2978c0.03809-0.1279,0.0235-0.2656-0.0405-0.3828l-1.9004-3.4737l2.3506,0.6114
	c3.0523,0.8134,3.73289,1.8466,4.5503,6.9072l2.82619,17.5693L82.1279,80.8594z"/>
</svg>
